<mxfile host="app.diagrams.net" modified="2022-05-30T09:13:28.306Z" agent="5.0 (Windows)" etag="3SO9mjEGfbm0HE-AGI06" version="18.1.2" type="github">
  <diagram name="Page-1" id="e7e014a7-5840-1c2e-5031-d8a46d1fe8dd">
    <mxGraphModel dx="1727" dy="931" grid="1" gridSize="10" guides="1" tooltips="1" connect="1" arrows="1" fold="1" page="1" pageScale="1" pageWidth="827" pageHeight="1169" background="none" math="0" shadow="0">
      <root>
        <mxCell id="0" />
        <mxCell id="1" parent="0" />
        <mxCell id="3WMgKvLOfC6idiZUZahX-108" style="edgeStyle=orthogonalEdgeStyle;rounded=0;orthogonalLoop=1;jettySize=auto;html=1;entryX=0.505;entryY=-0.003;entryDx=0;entryDy=0;entryPerimeter=0;strokeColor=#392C1C;" edge="1" parent="1" source="16" target="3WMgKvLOfC6idiZUZahX-80">
          <mxGeometry relative="1" as="geometry" />
        </mxCell>
        <mxCell id="3WMgKvLOfC6idiZUZahX-95" style="edgeStyle=orthogonalEdgeStyle;rounded=0;orthogonalLoop=1;jettySize=auto;html=1;entryX=1.001;entryY=0.552;entryDx=0;entryDy=0;entryPerimeter=0;strokeColor=#392C1C;" edge="1" parent="1" source="3WMgKvLOfC6idiZUZahX-94" target="3WMgKvLOfC6idiZUZahX-81">
          <mxGeometry relative="1" as="geometry">
            <Array as="points">
              <mxPoint x="600" y="616" />
              <mxPoint x="600" y="483" />
            </Array>
          </mxGeometry>
        </mxCell>
        <mxCell id="3WMgKvLOfC6idiZUZahX-90" style="edgeStyle=orthogonalEdgeStyle;rounded=0;orthogonalLoop=1;jettySize=auto;html=1;entryX=0.001;entryY=0.485;entryDx=0;entryDy=0;entryPerimeter=0;strokeColor=#392C1C;" edge="1" parent="1" source="3WMgKvLOfC6idiZUZahX-65" target="33">
          <mxGeometry relative="1" as="geometry">
            <Array as="points">
              <mxPoint x="610" y="564" />
              <mxPoint x="610" y="334" />
            </Array>
          </mxGeometry>
        </mxCell>
        <mxCell id="2" value="Main" style="swimlane;whiteSpace=wrap;strokeColor=#392C1C;perimeterSpacing=12;" parent="1" vertex="1">
          <mxGeometry x="14" y="100" width="306" height="570" as="geometry" />
        </mxCell>
        <mxCell id="3WMgKvLOfC6idiZUZahX-52" style="edgeStyle=orthogonalEdgeStyle;rounded=0;orthogonalLoop=1;jettySize=auto;html=1;entryX=0.482;entryY=-0.007;entryDx=0;entryDy=0;entryPerimeter=0;strokeColor=#392C1C;" edge="1" parent="2">
          <mxGeometry relative="1" as="geometry">
            <mxPoint x="153" y="60" as="sourcePoint" />
            <mxPoint x="153.01999999999998" y="99.65000000000009" as="targetPoint" />
          </mxGeometry>
        </mxCell>
        <mxCell id="5" value="" style="ellipse;shape=startState;fillColor=#392C1C;strokeColor=#B09373;" parent="2" vertex="1">
          <mxGeometry x="138" y="32" width="30" height="30" as="geometry" />
        </mxCell>
        <mxCell id="3WMgKvLOfC6idiZUZahX-49" style="edgeStyle=orthogonalEdgeStyle;rounded=0;orthogonalLoop=1;jettySize=auto;html=1;entryX=0.495;entryY=-0.033;entryDx=0;entryDy=0;entryPerimeter=0;strokeColor=#392C1C;" edge="1" parent="2" source="7" target="8">
          <mxGeometry relative="1" as="geometry" />
        </mxCell>
        <mxCell id="3WMgKvLOfC6idiZUZahX-51" style="edgeStyle=orthogonalEdgeStyle;rounded=0;orthogonalLoop=1;jettySize=auto;html=1;entryX=0.532;entryY=-0.02;entryDx=0;entryDy=0;entryPerimeter=0;strokeColor=#392C1C;exitX=0.503;exitY=1.02;exitDx=0;exitDy=0;exitPerimeter=0;" edge="1" parent="2" source="7" target="3WMgKvLOfC6idiZUZahX-48">
          <mxGeometry relative="1" as="geometry" />
        </mxCell>
        <mxCell id="7" value="User Action" style="strokeColor=#392C1C;" parent="2" vertex="1">
          <mxGeometry x="98" y="100" width="110" height="50" as="geometry" />
        </mxCell>
        <mxCell id="3WMgKvLOfC6idiZUZahX-56" style="edgeStyle=orthogonalEdgeStyle;rounded=0;orthogonalLoop=1;jettySize=auto;html=1;entryX=0.5;entryY=0;entryDx=0;entryDy=0;entryPerimeter=0;strokeColor=#392C1C;exitX=0.5;exitY=1.014;exitDx=0;exitDy=0;exitPerimeter=0;" edge="1" parent="2" source="8" target="3WMgKvLOfC6idiZUZahX-53">
          <mxGeometry relative="1" as="geometry" />
        </mxCell>
        <mxCell id="8" value="Select Sample Audio" style="" parent="2" vertex="1">
          <mxGeometry x="17" y="210" width="124" height="50" as="geometry" />
        </mxCell>
        <mxCell id="3WMgKvLOfC6idiZUZahX-48" value="Upload Own Audio" style="" vertex="1" parent="2">
          <mxGeometry x="159" y="210" width="124" height="50" as="geometry" />
        </mxCell>
        <mxCell id="3WMgKvLOfC6idiZUZahX-78" style="edgeStyle=orthogonalEdgeStyle;rounded=0;orthogonalLoop=1;jettySize=auto;html=1;entryX=0.484;entryY=0;entryDx=0;entryDy=0;entryPerimeter=0;strokeColor=#392C1C;" edge="1" parent="2" source="3WMgKvLOfC6idiZUZahX-53" target="3WMgKvLOfC6idiZUZahX-71">
          <mxGeometry relative="1" as="geometry" />
        </mxCell>
        <mxCell id="3WMgKvLOfC6idiZUZahX-53" value="Bring User to &#xa;Audio Player Page" style="" vertex="1" parent="2">
          <mxGeometry x="17" y="277" width="124" height="50" as="geometry" />
        </mxCell>
        <mxCell id="3WMgKvLOfC6idiZUZahX-75" style="edgeStyle=orthogonalEdgeStyle;rounded=0;orthogonalLoop=1;jettySize=auto;html=1;entryX=0.5;entryY=0;entryDx=0;entryDy=0;entryPerimeter=0;strokeColor=#392C1C;" edge="1" parent="2" source="3WMgKvLOfC6idiZUZahX-71" target="3WMgKvLOfC6idiZUZahX-74">
          <mxGeometry relative="1" as="geometry" />
        </mxCell>
        <mxCell id="3WMgKvLOfC6idiZUZahX-71" value="User Action" style="" vertex="1" parent="2">
          <mxGeometry x="19" y="350" width="124" height="50" as="geometry" />
        </mxCell>
        <mxCell id="3WMgKvLOfC6idiZUZahX-106" style="edgeStyle=orthogonalEdgeStyle;rounded=0;orthogonalLoop=1;jettySize=auto;html=1;entryX=0.5;entryY=0;entryDx=0;entryDy=0;strokeColor=#392C1C;" edge="1" parent="2" source="3WMgKvLOfC6idiZUZahX-74" target="3WMgKvLOfC6idiZUZahX-103">
          <mxGeometry relative="1" as="geometry" />
        </mxCell>
        <mxCell id="3WMgKvLOfC6idiZUZahX-74" value="Play/Pause Audio" style="" vertex="1" parent="2">
          <mxGeometry x="19" y="439" width="124" height="50" as="geometry" />
        </mxCell>
        <mxCell id="3WMgKvLOfC6idiZUZahX-103" value="" style="ellipse;shape=endState;fillColor=#392C1C;strokeColor=#B09373;" vertex="1" parent="2">
          <mxGeometry x="143" y="530" width="30" height="30" as="geometry" />
        </mxCell>
        <mxCell id="4" value="FFT Analysis" style="swimlane;whiteSpace=wrap" parent="1" vertex="1">
          <mxGeometry x="590" y="100" width="224" height="570" as="geometry" />
        </mxCell>
        <mxCell id="3WMgKvLOfC6idiZUZahX-97" style="edgeStyle=orthogonalEdgeStyle;rounded=0;orthogonalLoop=1;jettySize=auto;html=1;entryX=0.49;entryY=-0.071;entryDx=0;entryDy=0;entryPerimeter=0;strokeColor=#392C1C;" edge="1" parent="4" source="33" target="3WMgKvLOfC6idiZUZahX-92">
          <mxGeometry relative="1" as="geometry" />
        </mxCell>
        <mxCell id="33" value="Check Audio Format" style="" parent="4" vertex="1">
          <mxGeometry x="48" y="210" width="130" height="50" as="geometry" />
        </mxCell>
        <mxCell id="3WMgKvLOfC6idiZUZahX-91" style="edgeStyle=orthogonalEdgeStyle;rounded=0;orthogonalLoop=1;jettySize=auto;html=1;entryX=0.483;entryY=-0.024;entryDx=0;entryDy=0;entryPerimeter=0;strokeColor=#392C1C;" edge="1" parent="4" source="3WMgKvLOfC6idiZUZahX-43" target="33">
          <mxGeometry relative="1" as="geometry" />
        </mxCell>
        <mxCell id="3WMgKvLOfC6idiZUZahX-43" value="idle" style="" vertex="1" parent="4">
          <mxGeometry x="56" y="100" width="110" height="50" as="geometry" />
        </mxCell>
        <mxCell id="3WMgKvLOfC6idiZUZahX-88" value="" style="ellipse;shape=startState;fillColor=#392C1C;strokeColor=#B09373;" vertex="1" parent="4">
          <mxGeometry x="98.5" y="30" width="30" height="30" as="geometry" />
        </mxCell>
        <mxCell id="3WMgKvLOfC6idiZUZahX-89" style="edgeStyle=orthogonalEdgeStyle;rounded=0;orthogonalLoop=1;jettySize=auto;html=1;entryX=0.518;entryY=-0.024;entryDx=0;entryDy=0;entryPerimeter=0;strokeColor=#392C1C;" edge="1" parent="4" source="3WMgKvLOfC6idiZUZahX-88" target="3WMgKvLOfC6idiZUZahX-43">
          <mxGeometry relative="1" as="geometry">
            <mxPoint x="107.01999999999998" y="99.64999999999998" as="targetPoint" />
          </mxGeometry>
        </mxCell>
        <mxCell id="3WMgKvLOfC6idiZUZahX-98" style="edgeStyle=orthogonalEdgeStyle;rounded=0;orthogonalLoop=1;jettySize=auto;html=1;entryX=0.503;entryY=0;entryDx=0;entryDy=0;entryPerimeter=0;strokeColor=#392C1C;" edge="1" parent="4" source="3WMgKvLOfC6idiZUZahX-92" target="3WMgKvLOfC6idiZUZahX-93">
          <mxGeometry relative="1" as="geometry" />
        </mxCell>
        <mxCell id="3WMgKvLOfC6idiZUZahX-92" value="Run STFT on &#xa;Audio Sample" style="" vertex="1" parent="4">
          <mxGeometry x="49" y="300" width="130" height="50" as="geometry" />
        </mxCell>
        <mxCell id="3WMgKvLOfC6idiZUZahX-102" style="edgeStyle=orthogonalEdgeStyle;rounded=0;orthogonalLoop=1;jettySize=auto;html=1;entryX=0.503;entryY=0.023;entryDx=0;entryDy=0;entryPerimeter=0;strokeColor=#392C1C;" edge="1" parent="4" source="3WMgKvLOfC6idiZUZahX-93" target="3WMgKvLOfC6idiZUZahX-94">
          <mxGeometry relative="1" as="geometry" />
        </mxCell>
        <mxCell id="3WMgKvLOfC6idiZUZahX-93" value="Return Alert Dialog &#xa;Presenting frequency of note" style="" vertex="1" parent="4">
          <mxGeometry x="26" y="391" width="175" height="50" as="geometry" />
        </mxCell>
        <mxCell id="3WMgKvLOfC6idiZUZahX-94" value="User closes Dialog Box" style="" vertex="1" parent="4">
          <mxGeometry x="25.5" y="491" width="175" height="50" as="geometry" />
        </mxCell>
        <mxCell id="3WMgKvLOfC6idiZUZahX-79" style="edgeStyle=orthogonalEdgeStyle;rounded=0;orthogonalLoop=1;jettySize=auto;html=1;entryX=0.484;entryY=0;entryDx=0;entryDy=0;entryPerimeter=0;strokeColor=#392C1C;" edge="1" parent="1" source="3WMgKvLOfC6idiZUZahX-80" target="3WMgKvLOfC6idiZUZahX-81">
          <mxGeometry relative="1" as="geometry" />
        </mxCell>
        <mxCell id="3WMgKvLOfC6idiZUZahX-80" value="Bring User to &#xa;Audio Player Page" style="" vertex="1" parent="1">
          <mxGeometry x="397" y="381" width="124" height="50" as="geometry" />
        </mxCell>
        <mxCell id="3WMgKvLOfC6idiZUZahX-86" style="edgeStyle=orthogonalEdgeStyle;rounded=0;orthogonalLoop=1;jettySize=auto;html=1;entryX=0.493;entryY=-0.028;entryDx=0;entryDy=0;entryPerimeter=0;strokeColor=#392C1C;" edge="1" parent="1" source="3WMgKvLOfC6idiZUZahX-81" target="3WMgKvLOfC6idiZUZahX-63">
          <mxGeometry relative="1" as="geometry" />
        </mxCell>
        <mxCell id="3WMgKvLOfC6idiZUZahX-87" style="edgeStyle=orthogonalEdgeStyle;rounded=0;orthogonalLoop=1;jettySize=auto;html=1;entryX=0.529;entryY=-0.028;entryDx=0;entryDy=0;entryPerimeter=0;strokeColor=#392C1C;" edge="1" parent="1" source="3WMgKvLOfC6idiZUZahX-81" target="3WMgKvLOfC6idiZUZahX-65">
          <mxGeometry relative="1" as="geometry" />
        </mxCell>
        <mxCell id="3WMgKvLOfC6idiZUZahX-81" value="User Action" style="" vertex="1" parent="1">
          <mxGeometry x="399" y="455" width="124" height="50" as="geometry" />
        </mxCell>
        <mxCell id="3" value="File Picker" style="swimlane;whiteSpace=wrap" parent="1" vertex="1">
          <mxGeometry x="320" y="100" width="270" height="570" as="geometry" />
        </mxCell>
        <mxCell id="3WMgKvLOfC6idiZUZahX-62" style="edgeStyle=orthogonalEdgeStyle;rounded=0;orthogonalLoop=1;jettySize=auto;html=1;entryX=0.501;entryY=-0.012;entryDx=0;entryDy=0;entryPerimeter=0;strokeColor=#392C1C;" edge="1" parent="3" source="15" target="16">
          <mxGeometry relative="1" as="geometry" />
        </mxCell>
        <mxCell id="15" value="idle" style="" parent="3" vertex="1">
          <mxGeometry x="85" y="100" width="110" height="50" as="geometry" />
        </mxCell>
        <mxCell id="16" value="Check for Audio Input" style="" parent="3" vertex="1">
          <mxGeometry x="45" y="211" width="190" height="50" as="geometry" />
        </mxCell>
        <mxCell id="3WMgKvLOfC6idiZUZahX-60" value="" style="ellipse;shape=startState;fillColor=#392C1C;strokeColor=#B09373;" vertex="1" parent="3">
          <mxGeometry x="125" y="30" width="30" height="30" as="geometry" />
        </mxCell>
        <mxCell id="3WMgKvLOfC6idiZUZahX-59" style="edgeStyle=orthogonalEdgeStyle;rounded=0;orthogonalLoop=1;jettySize=auto;html=1;entryX=0.482;entryY=-0.007;entryDx=0;entryDy=0;entryPerimeter=0;strokeColor=#392C1C;" edge="1" parent="3" source="3WMgKvLOfC6idiZUZahX-60">
          <mxGeometry relative="1" as="geometry">
            <mxPoint x="140.01999999999998" y="99.64999999999998" as="targetPoint" />
          </mxGeometry>
        </mxCell>
        <mxCell id="3WMgKvLOfC6idiZUZahX-105" style="edgeStyle=orthogonalEdgeStyle;rounded=0;orthogonalLoop=1;jettySize=auto;html=1;entryX=0.5;entryY=0;entryDx=0;entryDy=0;strokeColor=#392C1C;" edge="1" parent="3" source="3WMgKvLOfC6idiZUZahX-63" target="38">
          <mxGeometry relative="1" as="geometry" />
        </mxCell>
        <mxCell id="3WMgKvLOfC6idiZUZahX-63" value="Play/Pause Audio" style="" vertex="1" parent="3">
          <mxGeometry x="10" y="439" width="124" height="50" as="geometry" />
        </mxCell>
        <mxCell id="3WMgKvLOfC6idiZUZahX-65" value="Run Note Analysis" style="" vertex="1" parent="3">
          <mxGeometry x="140" y="439" width="124" height="50" as="geometry" />
        </mxCell>
        <mxCell id="38" value="" style="ellipse;shape=endState;fillColor=#392C1C;strokeColor=#B09373;" parent="3" vertex="1">
          <mxGeometry x="125" y="530" width="30" height="30" as="geometry" />
        </mxCell>
        <mxCell id="3WMgKvLOfC6idiZUZahX-58" style="edgeStyle=orthogonalEdgeStyle;rounded=0;orthogonalLoop=1;jettySize=auto;html=1;entryX=-0.006;entryY=0.479;entryDx=0;entryDy=0;entryPerimeter=0;strokeColor=#392C1C;exitX=0.996;exitY=0.491;exitDx=0;exitDy=0;exitPerimeter=0;" edge="1" parent="1" source="3WMgKvLOfC6idiZUZahX-48" target="16">
          <mxGeometry relative="1" as="geometry">
            <mxPoint x="280" y="335" as="sourcePoint" />
          </mxGeometry>
        </mxCell>
      </root>
    </mxGraphModel>
  </diagram>
</mxfile>
